<?xml version="1.0" encoding="UTF-8"?>
<!DOCTYPE svg PUBLIC "-//W3C//DTD SVG 1.1//EN" "http://www.w3.org/Graphics/SVG/1.1/DTD/svg11.dtd">
<!-- Creator: CorelDRAW (OEM Version) -->
<svg xmlns="http://www.w3.org/2000/svg" xml:space="preserve" width="39.5648mm" height="14.7627mm" version="1.1" style="shape-rendering:geometricPrecision; text-rendering:geometricPrecision; image-rendering:optimizeQuality; fill-rule:evenodd; clip-rule:evenodd"
viewBox="0 0 7635.97 2849.19"
 xmlns:xlink="http://www.w3.org/1999/xlink"
 xmlns:xodm="http://www.corel.com/coreldraw/odm/2003">
 <defs>
  <style type="text/css">
   <![CDATA[
    .fil0 {fill:#CD9A41;fill-rule:nonzero}
   ]]>
  </style>
 </defs>
 <g id="Layer_x0020_1">
  <metadata id="CorelCorpID_0Corel-Layer"/>
  <path class="fil0" d="M1459.27 360.83l0 642.09c0,89.61 7.66,151.23 23.01,184.84 15.32,33.62 55.41,58.67 120.28,75.17l0 35.38 -442.2 0 0 -35.38c28.29,-7.08 51.28,-16.21 68.98,-27.41 17.68,-11.21 31.25,-22.12 40.68,-32.73 9.44,-10.61 16.5,-28 21.21,-52.19 4.73,-24.16 7.37,-44.81 7.97,-61.91 0.58,-17.08 0.89,-45.68 0.89,-85.77l0 -336.09 -665.07 0 0 336.09c0,89.61 7.66,151.23 22.99,184.84 15.32,33.62 55.43,58.67 120.28,75.17l0 35.38 -442.2 0 0 -35.38c28.29,-7.08 51.3,-16.21 69,-27.41 17.68,-11.21 31.23,-22.12 40.66,-32.73 9.44,-10.61 16.52,-28 21.23,-52.19 4.73,-24.16 7.37,-44.81 7.95,-61.91 0.6,-17.08 0.89,-45.68 0.89,-85.77l0 -642.09c0,-89.61 -7.66,-151.23 -22.99,-184.84 -15.32,-33.62 -55.43,-58.67 -120.28,-75.17l0 -35.38 442.2 0 0 35.38c-28.29,7.08 -51.3,16.21 -68.98,27.41 -17.7,11.21 -31.25,22.12 -40.68,32.73 -9.44,10.61 -16.52,28 -21.23,52.19 -4.73,24.16 -7.37,44.8 -7.97,61.89 -0.58,17.1 -0.87,45.7 -0.87,85.79l0 256.48 665.07 0 0 -256.48c0,-89.61 -7.66,-151.23 -23.01,-184.84 -15.32,-33.62 -55.41,-58.67 -120.28,-75.17l0 -35.38 442.22 0 0 35.38c-28.31,7.08 -51.3,16.21 -69,27.41 -17.68,11.21 -31.25,22.12 -40.68,32.73 -9.42,10.61 -16.5,28 -21.23,52.19 -4.71,24.16 -7.37,44.8 -7.95,61.89 -0.6,17.1 -0.89,45.7 -0.89,85.79zm686.3 960.48c-123.83,0 -225.23,-41.57 -304.24,-124.72 -78.99,-83.12 -118.5,-187.79 -118.5,-313.95 0,-127.36 43.33,-235.27 130,-323.7 86.68,-88.45 189.56,-132.67 308.66,-132.67 122.63,0 223.45,41.28 302.47,123.81 78.99,82.56 118.5,182.79 118.5,300.71 0,132.07 -42.15,243.51 -126.47,334.31 -84.3,90.79 -187.79,136.2 -310.42,136.2zm38.91 -53.07c70.75,0 129.12,-26.25 175.13,-78.71 45.97,-52.48 68.98,-125.29 68.98,-218.46 0,-145.04 -27.71,-263.56 -83.14,-355.52 -55.41,-91.98 -125.58,-137.98 -210.48,-137.98 -75.46,0 -136.49,26.83 -183.08,80.48 -46.57,53.65 -69.87,129.43 -69.87,227.29 0,145.04 27.71,261.78 83.14,350.24 55.41,88.43 128.52,132.65 219.32,132.65zm1293 -201.65c0,66.04 9.44,112.9 28.31,140.62 18.86,27.71 49.52,46.28 91.98,55.72l0 35.38 -229.96 0 -19.45 -28.29 0 -81.37c-127.36,83.72 -236.42,125.58 -327.23,125.58 -153.3,0 -229.94,-95.52 -229.94,-286.55l0 -367.91c0,-84.9 -41.86,-133.84 -125.6,-146.81l0 -35.38c95.53,-14.15 175.13,-35.96 238.8,-65.45l28.31 24.76 0 502.34c0,37.75 0.87,68.98 2.64,93.76 1.78,24.76 5.91,50.12 12.39,76.06 6.48,25.94 15.32,46.28 26.52,61.01 11.21,14.75 26.85,26.85 46.88,36.26 20.05,9.44 44.81,14.17 74.29,14.17 73.11,0 153.3,-27.71 240.57,-83.14l0 -468.74c0,-84.9 -41.86,-133.84 -125.6,-146.81l0 -35.38c95.53,-14.15 175.13,-35.96 238.8,-65.45l28.29 24.76 0 620.86zm465.2 256.48c-73.11,0 -150.35,-15.92 -231.71,-47.75l-17.68 -231.71 33.6 -5.31c29.47,80.19 62.78,139.44 99.93,177.77 37.15,38.31 88.14,57.48 153.01,57.48 54.23,0 99.05,-15.32 134.42,-45.99 35.38,-30.65 53.06,-70.16 53.06,-118.5 0,-27.14 -3.53,-49.54 -10.61,-67.22 -7.06,-17.68 -20.63,-33.02 -40.66,-45.99 -20.05,-12.97 -38.04,-22.41 -53.96,-28.29 -15.92,-5.91 -43.33,-14.75 -82.24,-26.54 -9.44,-3.53 -17.1,-5.89 -23.01,-7.08 -82.55,-24.76 -142.68,-56.01 -180.42,-93.74 -37.73,-37.73 -56.61,-90.21 -56.61,-157.43 0,-73.11 28.89,-134.13 86.68,-183.06 57.78,-48.94 133.25,-73.42 226.41,-73.42 53.07,0 120.28,11.79 201.65,35.38l21.23 214.04 -30.07 5.29c-48.35,-135.6 -123.23,-203.4 -224.65,-203.4 -47.17,0 -85.79,13.57 -115.86,40.68 -30.05,27.12 -45.1,59.54 -45.1,97.29 0,51.88 19.45,90.5 58.38,115.86 38.91,25.34 105.53,52.77 199.87,82.26 68.4,21.21 118.23,48.64 149.46,82.24 31.27,33.6 46.88,79.3 46.88,137.09 0,83.72 -32.71,152.99 -98.16,207.84 -65.47,54.83 -150.06,82.24 -253.83,82.24zm944.56 -93.74c91.96,0 173.33,-23.58 244.09,-70.75l17.7 26.54c-114.39,91.96 -227.01,137.96 -337.86,137.96 -110.84,0 -202.82,-39.51 -275.93,-118.5 -73.11,-79.01 -109.66,-181.61 -109.66,-307.78 0,-134.44 38.33,-246.46 114.97,-336.07 76.66,-89.63 169.22,-134.44 277.71,-134.44 99.05,0 179.24,31.84 240.55,95.52 61.34,63.69 96.69,149.77 106.13,258.25l-594.32 8.84 0 37.15c0,124.99 27.43,223.45 82.26,295.39 54.83,71.93 132.96,107.91 234.38,107.91zm-93.76 -753.53c-62.49,0 -112.02,23.89 -148.59,71.64 -36.55,47.77 -59.54,112.33 -68.98,193.69l429.83 -8.84c-7.08,-75.48 -28,-137.09 -62.8,-184.85 -34.78,-47.75 -84.61,-71.64 -149.46,-71.64zm1404.43 845.51c-123.81,0 -225.23,-41.57 -304.24,-124.72 -78.99,-83.12 -118.5,-187.79 -118.5,-313.95 0,-127.36 43.33,-235.27 130,-323.7 86.68,-88.45 189.56,-132.67 308.66,-132.67 122.63,0 223.47,41.28 302.47,123.81 79.01,82.56 118.5,182.79 118.5,300.71 0,132.07 -42.15,243.51 -126.45,334.31 -84.32,90.79 -187.79,136.2 -310.44,136.2zm38.93 -53.07c70.73,0 129.12,-26.25 175.11,-78.71 45.99,-52.48 68.98,-125.29 68.98,-218.46 0,-145.04 -27.71,-263.56 -83.12,-355.52 -55.43,-91.98 -125.58,-137.98 -210.48,-137.98 -75.48,0 -136.51,26.83 -183.1,80.48 -46.57,53.65 -69.85,129.43 -69.85,227.29 0,145.04 27.71,261.78 83.12,350.24 55.43,88.43 128.54,132.65 219.34,132.65zm1024.13 -1268.24c54.25,0 96.4,9.13 126.47,27.41 30.07,18.28 45.1,42.75 45.1,73.42 0,21.23 -6.2,38.62 -18.57,52.17 -12.39,13.57 -27.43,20.34 -45.1,20.34 -7.08,0 -33.91,-16.5 -80.48,-49.52 -46.59,-33 -88.74,-49.52 -126.47,-49.52 -56.61,0 -94.63,25.07 -114.08,75.17 -19.45,50.12 -29.2,127.07 -29.2,230.83l0 93.76 226.43 -12.39 0 61.91 -226.43 0 0 539.49c0,67.22 7.97,112.61 23.89,136.2 15.92,23.58 59.83,44.81 131.76,63.67l0 35.38 -422.75 0 0 -35.38c55.43,-20.05 90.23,-40.97 104.37,-62.8 14.15,-21.81 21.21,-67.49 21.21,-137.07l0 -539.49 -122.03 0 0 -35.38c57.76,-2.35 98.47,-15.34 122.03,-38.91 0,-133.25 34.2,-241.44 102.6,-324.59 68.4,-83.12 162.14,-124.7 281.24,-124.7zm-6634.82 2849.19c-180.42,0 -329.87,-62.8 -448.38,-188.39 -118.52,-125.58 -177.77,-278.57 -177.77,-459.01 0,-179.24 61.32,-331.05 183.95,-455.46 122.65,-124.41 270.64,-186.61 443.97,-186.61 183.97,0 334.6,61.03 451.95,183.06 117.32,122.05 175.98,274.46 175.98,457.25 0,181.59 -61.3,335.18 -183.95,460.77 -122.63,125.58 -271.22,188.39 -445.75,188.39zm40.7 -51.3c128.52,-4.71 228.45,-60.43 299.8,-167.16 71.35,-106.71 104.07,-244.97 98.16,-414.77 -5.89,-183.97 -52.77,-331.96 -140.62,-443.97 -87.83,-112.04 -200.16,-165.69 -336.96,-160.96 -127.34,4.71 -226.99,58.94 -298.92,162.72 -71.93,103.78 -104.95,238.2 -99.05,403.29 7.06,188.68 54.52,340.51 142.38,455.48 87.85,114.97 199.58,170.11 335.2,165.38zm1568.93 -1174.5l0 -35.38 422.75 0 0 35.38c-24.76,7.08 -43.93,17.1 -57.49,30.07 -13.55,12.97 -25.34,30.07 -35.38,51.3 -10.02,21.23 -17.1,56.61 -21.21,106.13 -4.13,49.52 -7.37,104.35 -9.75,164.49 -2.35,60.14 -4.11,146.24 -5.31,258.25l-3.53 344.93c-1.18,91.96 0.6,177.46 5.31,256.48l-83.12 0c-14.15,-22.41 -54.25,-71.93 -120.28,-148.59l-778.29 -916.24c0,117.92 4.13,308.95 12.39,573.09 4.71,148.59 24.45,255.9 59.25,321.92 34.78,66.04 92.27,106.13 172.46,120.3l0 35.38 -429.83 0 0 -35.38c31.84,-7.08 56.01,-22.72 72.53,-46.88 16.5,-24.18 29.76,-69.58 39.8,-136.2 10.02,-66.62 15.61,-162.45 16.81,-287.43l5.29 -527.1c1.18,-53.07 -5.02,-90.52 -18.57,-112.33 -13.57,-21.83 -46.28,-39.22 -98.16,-52.19l0 -35.38 263.54 0c15.32,37.73 42.46,79.59 81.37,125.58l748.2 884.42 -8.84 -366.16c-5.89,-227.58 -23.28,-381.46 -52.17,-461.65 -28.91,-80.19 -88.14,-129.12 -177.77,-146.81zm1521.18 861.41l35.38 5.31 -76.06 330.78 -951.62 0 -28.29 -40.68 826.02 -1142.67 -424.5 0c-87.25,0 -153.59,21.23 -199,63.69 -45.39,42.44 -83.41,110.84 -114.08,205.18l-35.38 -5.31 23.01 -313.08 951.62 0 21.21 38.93 -833.1 1144.41 346.68 0c54.25,0 102,-4.13 143.28,-12.37 41.26,-8.26 76.35,-18.88 105.24,-31.84 28.87,-12.97 56.01,-32.42 81.37,-58.36 25.34,-25.96 46.86,-52.19 64.56,-78.72 17.68,-26.52 38.91,-61.61 63.67,-105.24zm780.04 364.38c-180.42,0 -329.87,-62.8 -448.39,-188.39 -118.52,-125.58 -177.77,-278.57 -177.77,-459.01 0,-179.24 61.34,-331.05 183.97,-455.46 122.63,-124.41 270.62,-186.61 443.97,-186.61 183.95,0 334.6,61.03 451.93,183.06 117.34,122.05 176,274.46 176,457.25 0,181.59 -61.32,335.18 -183.95,460.77 -122.65,125.58 -271.22,188.39 -445.75,188.39zm40.68 -51.3c128.54,-4.71 228.47,-60.43 299.82,-167.16 71.33,-106.71 104.05,-244.97 98.16,-414.77 -5.91,-183.97 -52.77,-331.96 -140.62,-443.97 -87.85,-112.04 -200.18,-165.69 -336.96,-160.96 -127.36,4.71 -227.01,58.94 -298.94,162.72 -71.93,103.78 -104.95,238.2 -99.05,403.29 7.06,188.68 54.54,340.51 142.38,455.48 87.87,114.97 199.58,170.11 335.2,165.38zm1568.93 -1174.5l0 -35.38 422.76 0 0 35.38c-24.78,7.08 -43.93,17.1 -57.49,30.07 -13.57,12.97 -25.36,30.07 -35.38,51.3 -10.02,21.23 -17.1,56.61 -21.23,106.13 -4.13,49.52 -7.37,104.35 -9.73,164.49 -2.35,60.14 -4.13,146.24 -5.31,258.25l-3.53 344.93c-1.18,91.96 0.58,177.46 5.31,256.48l-83.14 0c-14.15,-22.41 -54.23,-71.93 -120.28,-148.59l-778.29 -916.24c0,117.92 4.15,308.95 12.39,573.09 4.71,148.59 24.47,255.9 59.25,321.92 34.8,66.04 92.27,106.13 172.46,120.3l0 35.38 -429.83 0 0 -35.38c31.84,-7.08 56.03,-22.72 72.53,-46.88 16.5,-24.18 29.78,-69.58 39.8,-136.2 10.02,-66.62 15.63,-162.45 16.81,-287.43l5.31 -527.1c1.18,-53.07 -5.02,-90.52 -18.59,-112.33 -13.55,-21.83 -46.28,-39.22 -98.16,-52.19l0 -35.38 263.56 0c15.32,37.73 42.44,79.59 81.35,125.58l748.22 884.42 -8.84 -366.16c-5.91,-227.58 -23.29,-381.46 -52.19,-461.65 -28.89,-80.19 -88.14,-129.12 -177.77,-146.81zm1457.51 868.5l31.84 12.37 -113.21 316.63 -850.8 0 0 -35.38c63.67,-16.52 102.89,-41.57 117.63,-75.17 14.73,-33.62 22.12,-95.23 22.12,-184.85l0 -642.07c0,-38.93 -0.31,-67.51 -0.89,-85.79 -0.6,-18.28 -3.26,-38.91 -7.97,-61.91 -4.71,-23.01 -12.08,-40.39 -22.1,-52.19 -10.04,-11.79 -23.89,-22.99 -41.57,-33.6 -17.7,-10.61 -40.11,-19.45 -67.22,-26.54l0 -35.38 831.34 0 21.23 307.78 -33.6 7.08c-35.38,-101.42 -79.59,-171.29 -132.67,-209.62 -53.07,-38.31 -130.29,-57.48 -231.71,-57.48 -15.32,0 -29.18,0.29 -41.57,0.87 -12.37,0.6 -28.89,1.2 -49.52,1.78 -20.63,0.6 -42.15,0.89 -64.56,0.89l0 520.04 129.12 -3.53c88.45,-2.37 151.83,-16.52 190.14,-42.46 38.33,-25.94 63.98,-64.87 76.95,-116.75l30.07 0 -5.31 394.45 -31.84 0c-10.6,-57.78 -34.18,-102 -70.73,-132.67 -36.55,-30.65 -99.65,-47.17 -189.27,-49.52l-129.12 -3.53 0 558.94c51.88,4.71 112.61,7.06 182.19,7.06 93.14,0 176.29,-20.92 249.39,-62.78 73.11,-41.86 140.33,-114.08 201.65,-216.68z"/>
 </g>
</svg>
